<svg xmlns="http://www.w3.org/2000/svg" width="27.894" height="18.596" viewBox="0 0 27.894 18.596">
  <g id="Grupo_799" data-name="Grupo 799" transform="translate(0 -91.358)">
    <path id="Trazado_710" data-name="Trazado 710" d="M27.734,92.447a1.883,1.883,0,0,0-.69-.792,1.814,1.814,0,0,0-1.01-.3H14.876A1.764,1.764,0,0,0,13.482,92L.464,106.874a1.787,1.787,0,0,0-.443.951,1.856,1.856,0,0,0,.138,1.039,1.883,1.883,0,0,0,.69.791,1.815,1.815,0,0,0,1.01.3H13.017a1.763,1.763,0,0,0,1.395-.639L27.429,94.438a1.789,1.789,0,0,0,.443-.952A1.853,1.853,0,0,0,27.734,92.447ZM13.017,108.094H1.859l4.882-5.579H17.9Z" transform="translate(0)" fill="rgb(209,209,209,1)"/>
  </g>
</svg>
