<svg id="Group_11" data-name="Group 11" xmlns="http://www.w3.org/2000/svg" width="40.624" height="41.077" viewBox="0 0 40.624 41.077">
  <defs>
    <style>
      .cls-1 {
        fill: #0e0c5a;
      }
    </style>
  </defs>
  <g id="Group_3" data-name="Group 3" transform="translate(0 7.544)">
    <path id="Fill_1" data-name="Fill 1" class="cls-1" d="M29.8,33.533H3.242c-.18-.076-.368-.144-.55-.21a5.161,5.161,0,0,1-1.165-.534A3.633,3.633,0,0,1,0,29.583c0-5.812,0-11.689,0-17.372V6.421q0-.4,0-.8V5.608C0,5.049,0,4.47,0,3.9A4.36,4.36,0,0,1,.288,2.334a3.615,3.615,0,0,1,.787-1.228A3.787,3.787,0,0,1,3.828.008C4.794,0,5.846,0,7.136,0L9.315,0l2.179,0h5.9c3.745,0,7.766,0,11.8,0a3.566,3.566,0,0,1,3.534,2.146A4.359,4.359,0,0,1,33.1,3.887c.015,5.536.016,11.165.017,16.609v0c0,2.984,0,6.069,0,9.11a4.006,4.006,0,0,1-.917,2.629,3.591,3.591,0,0,1-2.3,1.248.224.224,0,0,0-.073.03l-.034.018ZM16.554,1.866H3.971A1.913,1.913,0,0,0,1.835,4.044c0,3.045,0,6.116,0,9.086v3.634q0,1.914,0,3.828v.032c0,2.917,0,5.934,0,8.9a1.91,1.91,0,0,0,2.121,2.152H29.162a1.911,1.911,0,0,0,2.115-2.158c0-8.454,0-17.027,0-25.481a1.927,1.927,0,0,0-2.139-2.17Z"/>
  </g>
  <g id="Group_6" data-name="Group 6" transform="translate(7.544)">
    <path id="Fill_4" data-name="Fill 4" class="cls-1" d="M33.08,30.171a9.8,9.8,0,0,1-.717,1.784,3.488,3.488,0,0,1-2.992,1.57,6,6,0,0,1-.984-.021.915.915,0,0,1,.074-1.824c.248-.02.5-.009.749-.012a1.9,1.9,0,0,0,2.037-2.075c.005-2.361,0-4.721,0-7.082q0-9.242,0-18.485a2.221,2.221,0,0,0-.4-1.431,1.994,1.994,0,0,0-1.707-.741q-7.026.006-14.051,0-5.584,0-11.169,0A1.9,1.9,0,0,0,1.841,3.964a7.424,7.424,0,0,1-.023.8.882.882,0,0,1-1.183.759.822.822,0,0,1-.6-.724,4.482,4.482,0,0,1,.8-3.4A3.705,3.705,0,0,1,3.883,0H17.539Q23.38,0,29.222,0a3.519,3.519,0,0,1,3.124,1.545,9.746,9.746,0,0,1,.734,1.736Z" transform="translate(0 0)"/>
  </g>
  <path id="Fill_7" data-name="Fill 7" class="cls-1" d="M18.409,12.862H9.872c-2.527,0-5.672,0-8.689-.008A1.754,1.754,0,0,1,.4,12.677a.814.814,0,0,1-.317-1.066A2.983,2.983,0,0,1,.32,11.2c2.191-3.3,4.42-6.652,6.576-9.895l.014-.022L7.346.633,7.371.594l0,0c.04-.062.082-.126.129-.185a.9.9,0,0,1,1.54.069c.883,1.336,1.784,2.692,2.654,4l0,.006.152.228c.035.053.073.1.126.173l.109.145.367-.391c.279-.3.542-.58.816-.86.5-.516,1.041-1.064,1.588-1.59a1.08,1.08,0,0,1,.732-.343.978.978,0,0,1,.812.544c2.062,3.408,3.782,6.26,5.412,8.978a.981.981,0,0,1,.068,1,1.072,1.072,0,0,1-.978.49ZM8.238,2.563,5.8,6.24l-.106.16L2.64,11.007H19.458L18.1,8.737,15.4,4.253l-.082.07c-.044.037-.074.063-.1.091l-.792.8c-.578.582-1.175,1.184-1.77,1.77a1.1,1.1,0,0,1-.758.373,1.025,1.025,0,0,1-.821-.538c-.367-.548-.737-1.1-1.095-1.639L9.96,5.144l-.481-.722-.462-.691L8.238,2.563Z" transform="translate(6.032 22.406)"/>
  <path id="Fill_9" data-name="Fill 9" class="cls-1" d="M3.754,7.468H3.7A3.743,3.743,0,0,1,1.047,6.318,3.674,3.674,0,0,1,0,3.676,3.75,3.75,0,0,1,3.71,0h.067A3.761,3.761,0,0,1,6.437,1.172a3.617,3.617,0,0,1,1.031,2.6A3.773,3.773,0,0,1,3.754,7.468ZM3.711,1.862A1.869,1.869,0,0,0,3.674,5.6l.086,0A1.886,1.886,0,0,0,5.593,3.789a1.8,1.8,0,0,0-.484-1.3,1.921,1.921,0,0,0-1.323-.622Z" transform="translate(5.617 13.278)"/>
</svg>
